<svg width="423" height="194" viewBox="0 0 423 194" fill="none" xmlns="http://www.w3.org/2000/svg">
<path d="M53.6094 107.75C50.2344 106.344 46.625 105.641 42.7812 105.641C35 105.641 28.8125 108.781 24.2188 115.062C27.5 116.844 30.9688 117.734 34.625 117.734C38.0938 117.734 41.5625 116.891 45.0312 115.203C48.5938 113.516 51.4531 111.031 53.6094 107.75ZM68.2344 102.828C68.1406 110.328 64.625 116.891 57.6875 122.516C50.8438 128.047 43.1562 130.812 34.625 130.812C24.875 130.812 16.7656 127.484 10.2969 120.828C3.92188 114.078 0.734375 106.062 0.734375 96.7812C0.734375 88.1562 3.92188 80.3281 10.2969 73.2969C16.7656 66.2656 24.875 62.75 34.625 62.75C40.9062 62.75 47 64.3906 52.9062 67.6719C58.9062 70.9531 63.2188 75.5469 65.8438 81.4531L54.4531 87.5C49.5781 79.8125 42.9688 75.9688 34.625 75.9688C30.0312 75.9688 26.0469 77.2812 22.6719 79.9062C19.3906 82.4375 17.0938 85.25 15.7812 88.3438C14.4688 91.3438 13.8125 94.1562 13.8125 96.7812C13.8125 100.25 14.7969 103.484 16.7656 106.484C20.1406 102.547 24.1719 99.5938 28.8594 97.625C33.5469 95.5625 38.2344 94.5312 42.9219 94.5312C51.2656 94.5312 59.7031 97.2969 68.2344 102.828ZM134.047 109.859C129.453 105.734 124.109 103.672 118.016 103.672C112.203 103.672 106.906 105.734 102.125 109.859C106.062 115.109 111.359 117.734 118.016 117.734C124.578 117.734 129.922 115.109 134.047 109.859ZM152.047 94.5312C152.047 104.656 148.766 113.234 142.203 120.266C135.641 127.297 127.578 130.812 118.016 130.812C108.453 130.812 100.391 127.297 93.8281 120.266C87.2656 113.234 83.9844 104.656 83.9844 94.5312C83.9844 87.4062 84.9688 81.3594 86.9375 76.3906C89 71.4219 92.375 66.9219 97.0625 62.8906L104.656 73.5781C101.938 76.6719 99.9688 79.7656 98.75 82.8594C97.625 85.9531 97.0625 89.8438 97.0625 94.5312C97.0625 96.2188 97.3438 97.7656 97.9062 99.1719C102.969 94.7656 109.672 92.5625 118.016 92.5625C125.984 92.5625 132.734 94.8125 138.266 99.3125C138.734 97.625 138.969 96.0312 138.969 94.5312C138.969 89.9375 138.406 86.0938 137.281 83C136.156 79.9062 134.234 76.7656 131.516 73.5781L139.109 62.8906C143.797 66.9219 147.125 71.4219 149.094 76.3906C151.062 81.3594 152.047 87.4062 152.047 94.5312ZM124.203 193.25H100.016V181.438H112.25V142.203H124.203V193.25ZM212.094 96.7812C212.094 106.156 208.766 114.172 202.109 120.828C195.547 127.484 187.719 130.812 178.625 130.812C174.125 130.812 169.953 129.922 166.109 128.141L171.172 116.328C172.953 117.266 175.391 117.734 178.484 117.734C184.203 117.734 189.031 115.719 192.969 111.688C196.906 107.562 198.875 102.594 198.875 96.7812C198.875 91.0625 196.906 86.1875 192.969 82.1562C189.031 78.0312 184.25 75.9688 178.625 75.9688C174.5 75.9688 170.422 77.1875 166.391 79.625C162.359 82.0625 157.016 86.1406 150.359 91.8594L142.766 80.3281C148.578 75.6406 152.844 72.3594 155.562 70.4844C158.188 68.5156 161.562 66.7344 165.688 65.1406C169.812 63.5469 174.125 62.75 178.625 62.75C187.719 62.75 195.547 66.125 202.109 72.875C208.766 79.5312 212.094 87.5 212.094 96.7812ZM211.109 11.7344L203.938 17.6406C201.031 12.9531 197.094 10.6094 192.125 10.6094C187.812 10.6094 184.016 12.1094 180.734 15.1094C177.453 18.1094 175.812 22.0469 175.812 26.9219C175.812 32.1719 177.734 36.3438 181.578 39.4375C185.422 42.5312 188.938 44.0781 192.125 44.0781V54.0625C185.656 54.0625 179.656 51.4375 174.125 46.1875C168.594 40.8438 165.828 34.4219 165.828 26.9219C165.828 19.2344 168.5 12.9531 173.844 8.07812C179.094 3.10937 185.188 0.625 192.125 0.625C195.688 0.625 199.203 1.5625 202.672 3.4375C206.141 5.3125 208.953 8.07812 211.109 11.7344ZM280.438 107.75C277.062 106.344 273.453 105.641 269.609 105.641C261.828 105.641 255.641 108.781 251.047 115.062C254.328 116.844 257.797 117.734 261.453 117.734C264.922 117.734 268.391 116.891 271.859 115.203C275.422 113.516 278.281 111.031 280.438 107.75ZM295.062 102.828C294.969 110.328 291.453 116.891 284.516 122.516C277.672 128.047 269.984 130.812 261.453 130.812C251.703 130.812 243.594 127.484 237.125 120.828C230.75 114.078 227.562 106.062 227.562 96.7812C227.562 88.1562 230.75 80.3281 237.125 73.2969C243.594 66.2656 251.703 62.75 261.453 62.75C267.734 62.75 273.828 64.3906 279.734 67.6719C285.734 70.9531 290.047 75.5469 292.672 81.4531L281.281 87.5C276.406 79.8125 269.797 75.9688 261.453 75.9688C256.859 75.9688 252.875 77.2812 249.5 79.9062C246.219 82.4375 243.922 85.25 242.609 88.3438C241.297 91.3438 240.641 94.1562 240.641 96.7812C240.641 100.25 241.625 103.484 243.594 106.484C246.969 102.547 251 99.5938 255.688 97.625C260.375 95.5625 265.062 94.5312 269.75 94.5312C278.094 94.5312 286.531 97.2969 295.062 102.828ZM378.875 94.5312C378.875 104.656 375.594 113.234 369.031 120.266C362.469 127.297 354.406 130.812 344.844 130.812C335.281 130.812 327.219 127.297 320.656 120.266C314.094 113.234 310.812 104.656 310.812 94.5312C310.812 87.4062 311.797 81.3594 313.766 76.3906C315.828 71.4219 319.203 66.9219 323.891 62.8906L331.484 73.5781C328.672 76.8594 326.703 79.9531 325.578 82.8594C324.453 85.6719 323.891 89.5625 323.891 94.5312C323.891 100.906 325.812 106.391 329.656 110.984C333.594 115.484 338.656 117.734 344.844 117.734C351.031 117.734 356.047 115.484 359.891 110.984C363.828 106.391 365.797 100.906 365.797 94.5312C365.797 89.5625 365.234 85.625 364.109 82.7188C362.984 79.8125 361.062 76.7656 358.344 73.5781L365.938 62.8906C370.625 66.9219 373.953 71.4219 375.922 76.3906C377.891 81.3594 378.875 87.4062 378.875 94.5312ZM412.906 81.0312C414.125 79.7188 414.734 78.2188 414.734 76.5312C414.734 74.8438 414.125 73.3906 412.906 72.1719C411.688 70.8594 410.188 70.2031 408.406 70.2031C406.625 70.2031 405.125 70.8594 403.906 72.1719C402.688 73.3906 402.078 74.8438 402.078 76.5312C402.078 78.2188 402.688 79.7188 403.906 81.0312C405.125 82.25 406.625 82.8594 408.406 82.8594C410.188 82.8594 411.688 82.25 412.906 81.0312ZM418.25 66.8281C420.969 69.4531 422.328 72.6875 422.328 76.5312C422.328 80.375 420.969 83.6562 418.25 86.375C415.531 89.0938 412.25 90.4531 408.406 90.4531C404.562 90.4531 401.281 89.0938 398.562 86.375C395.938 83.6562 394.625 80.375 394.625 76.5312C394.625 72.6875 395.938 69.4531 398.562 66.8281C401.281 64.1094 404.562 62.75 408.406 62.75C412.25 62.75 415.531 64.1094 418.25 66.8281ZM412.906 119.422C414.125 118.109 414.734 116.609 414.734 114.922C414.734 113.234 414.125 111.781 412.906 110.562C411.688 109.25 410.188 108.594 408.406 108.594C406.625 108.594 405.125 109.25 403.906 110.562C402.688 111.781 402.078 113.234 402.078 114.922C402.078 116.609 402.688 118.109 403.906 119.422C405.125 120.641 406.625 121.25 408.406 121.25C410.188 121.25 411.688 120.641 412.906 119.422ZM422.328 114.922C422.328 118.672 420.969 121.906 418.25 124.625C415.531 127.344 412.25 128.703 408.406 128.703C404.656 128.703 401.422 127.391 398.703 124.766C395.984 122.047 394.625 118.766 394.625 114.922C394.625 111.078 395.938 107.797 398.562 105.078C401.281 102.359 404.562 101 408.406 101C412.25 101 415.531 102.359 418.25 105.078C420.969 107.797 422.328 111.078 422.328 114.922Z" fill="url(#paint0_linear_3:5)"/>
<defs>
<linearGradient id="paint0_linear_3:5" x1="212" y1="-14" x2="212" y2="198" gradientUnits="userSpaceOnUse">
<stop stop-color="#5D5FEF"/>
<stop offset="1" stop-color="#EF5DA8"/>
</linearGradient>
</defs>
</svg>
